{
  "accessors": [
    {
      "bufferView": 2,
      "componentType": 5126,
      "count": 65532,
      "max": [
        0.019178999587893486,
        0.02958899922668934,
        0.006837999913841486
      ],
      "min": [
        -0.019408000633120537,
        -0.02978000044822693,
        -0.006878000218421221
      ],
      "type": "VEC3"
    },
    {
      "bufferView": 2,
      "byteOffset": 786384,
      "componentType": 5126,
      "count": 65532,
      "max": [
        0.9999901652336121,
        0.9997561573982239,
        1.0
      ],
      "min": [
        -0.9999999403953552,
        -0.9999988675117493,
        -0.9999996423721313
      ],
      "type": "VEC3"
    },
    {
      "bufferView": 1,
      "componentType": 5126,
      "count": 65532,
      "max": [
        0.9999489784240723,
        0.9504910111427307
      ],
      "min": [
        5.500000042957254e-05,
        0.019579999148845673
      ],
      "type": "VEC2"
    },
    {
      "bufferView": 0,
      "componentType": 5125,
      "count": 362508,
      "type": "SCALAR"
    },
    {
      "bufferView": 2,
      "byteOffset": 1572768,
      "componentType": 5126,
      "count": 43539,
      "max": [
        0.019387999549508095,
        0.02973799966275692,
        0.006732999812811613
      ],
      "min": [
        -0.019310999661684036,
        -0.013244000263512135,
        -0.006649000104516745
      ],
      "type": "VEC3"
    },
    {
      "bufferView": 2,
      "byteOffset": 2095236,
      "componentType": 5126,
      "count": 43539,
      "max": [
        0.9999935626983643,
        0.9999566674232483,
        1.0
      ],
      "min": [
        -0.999914824962616,
        -0.9991825819015503,
        -1.0
      ],
      "type": "VEC3"
    },
    {
      "bufferView": 1,
      "byteOffset": 524256,
      "componentType": 5126,
      "count": 43539,
      "max": [
        0.8634309768676758,
        0.9233919978141785
      ],
      "min": [
        1.700000029813964e-05,
        5.6000000768108293e-05
      ],
      "type": "VEC2"
    },
    {
      "bufferView": 0,
      "byteOffset": 1450032,
      "componentType": 5125,
      "count": 220530,
      "type": "SCALAR"
    }
  ],
  "asset": {
    "extras": {
      "author": "NASA Astromaterials 3D (https://sketchfab.com/Astromaterials3D)",
      "license": "CC0-1.0 (http://creativecommons.org/publicdomain/zero/1.0/)",
      "source": "https://sketchfab.com/3d-models/antarctic-meteorite-sample-lar-1232632-9518395c58084c6f883d903daa886460",
      "title": "Antarctic Meteorite Sample LAR 12326,32"
    },
    "generator": "Sketchfab-13.74.0",
    "version": "2.0"
  },
  "bufferViews": [
    {
      "buffer": 0,
      "byteLength": 2332152,
      "name": "floatBufferViews",
      "target": 34963
    },
    {
      "buffer": 0,
      "byteLength": 872568,
      "byteOffset": 2332152,
      "byteStride": 8,
      "name": "floatBufferViews",
      "target": 34962
    },
    {
      "buffer": 0,
      "byteLength": 2617704,
      "byteOffset": 3204720,
      "byteStride": 12,
      "name": "floatBufferViews",
      "target": 34962
    }
  ],
  "buffers": [
    {
      "byteLength": 5822424,
      "uri": "scene.bin"
    }
  ],
  "images": [
    {
      "uri": "textures/material_1_baseColor.jpeg"
    }
  ],
  "materials": [
    {
      "doubleSided": true,
      "name": "material_1",
      "pbrMetallicRoughness": {
        "baseColorTexture": {
          "index": 0
        },
        "metallicFactor": 0.0
      }
    }
  ],
  "meshes": [
    {
      "name": "Object_0",
      "primitives": [
        {
          "attributes": {
            "NORMAL": 1,
            "POSITION": 0,
            "TEXCOORD_0": 2
          },
          "indices": 3,
          "material": 0,
          "mode": 4
        }
      ]
    },
    {
      "name": "Object_1",
      "primitives": [
        {
          "attributes": {
            "NORMAL": 5,
            "POSITION": 4,
            "TEXCOORD_0": 6
          },
          "indices": 7,
          "material": 0,
          "mode": 4
        }
      ]
    }
  ],
  "nodes": [
    {
      "children": [
        1
      ],
      "matrix": [
        1.0,
        0.0,
        0.0,
        0.0,
        0.0,
        2.220446049250313e-16,
        -1.0,
        0.0,
        0.0,
        1.0,
        2.220446049250313e-16,
        0.0,
        0.0,
        0.0,
        0.0,
        1.0
      ],
      "name": "Sketchfab_model"
    },
    {
      "children": [
        2,
        3
      ],
      "name": "LAR12326-32_SFM_Web-Resolution-Model_Coordinate-Registered.obj.cleaner.materialmerger.gles"
    },
    {
      "mesh": 0,
      "name": "Object_2"
    },
    {
      "mesh": 1,
      "name": "Object_3"
    }
  ],
  "samplers": [
    {
      "magFilter": 9729,
      "minFilter": 9987,
      "wrapS": 10497,
      "wrapT": 10497
    }
  ],
  "scene": 0,
  "scenes": [
    {
      "name": "Sketchfab_Scene",
      "nodes": [
        0
      ]
    }
  ],
  "textures": [
    {
      "sampler": 0,
      "source": 0
    }
  ]
}
