{
  "accessors": [
    {
      "bufferView": 2,
      "componentType": 5126,
      "count": 54835,
      "max": [
        0.016154000535607338,
        -0.003616000059992075,
        0.014094999991357327
      ],
      "min": [
        -0.02027300000190735,
        -0.032621998339891434,
        -0.0169489998370409
      ],
      "type": "VEC3"
    },
    {
      "bufferView": 2,
      "byteOffset": 658020,
      "componentType": 5126,
      "count": 54835,
      "max": [
        0.9999603033065796,
        0.9999508857727051,
        0.9999713897705078
      ],
      "min": [
        -0.99991375207901,
        -0.999969482421875,
        -0.9999716281890869
      ],
      "type": "VEC3"
    },
    {
      "bufferView": 1,
      "componentType": 5126,
      "count": 54835,
      "max": [
        0.9999430179595947,
        0.9075279831886292
      ],
      "min": [
        0.00014600000577047467,
        3.9999998989515007e-05
      ],
      "type": "VEC2"
    },
    {
      "bufferView": 0,
      "componentType": 5125,
      "count": 300000,
      "type": "SCALAR"
    }
  ],
  "asset": {
    "extras": {
      "author": "NASA Astromaterials 3D (https://sketchfab.com/Astromaterials3D)",
      "license": "CC0-1.0 (http://creativecommons.org/publicdomain/zero/1.0/)",
      "source": "https://sketchfab.com/3d-models/antarctic-meteorite-sample-mil-153070-d067affbb590492f80ca6b81b280c012",
      "title": "Antarctic Meteorite Sample MIL 15307,0"
    },
    "generator": "Sketchfab-13.74.0",
    "version": "2.0"
  },
  "bufferViews": [
    {
      "buffer": 0,
      "byteLength": 1200000,
      "name": "floatBufferViews",
      "target": 34963
    },
    {
      "buffer": 0,
      "byteLength": 438680,
      "byteOffset": 1200000,
      "byteStride": 8,
      "name": "floatBufferViews",
      "target": 34962
    },
    {
      "buffer": 0,
      "byteLength": 1316040,
      "byteOffset": 1638680,
      "byteStride": 12,
      "name": "floatBufferViews",
      "target": 34962
    }
  ],
  "buffers": [
    {
      "byteLength": 2954720,
      "uri": "scene.bin"
    }
  ],
  "images": [
    {
      "uri": "textures/MIL15307-0_SFM_Web-Resolution-Model_Coordinate-Unregistered_baseColor.jpeg"
    }
  ],
  "materials": [
    {
      "doubleSided": true,
      "name": "MIL15307-0_SFM_Web-Resolution-Model_Coordinate-Unregistered",
      "pbrMetallicRoughness": {
        "baseColorTexture": {
          "index": 0
        },
        "metallicFactor": 0.0
      }
    }
  ],
  "meshes": [
    {
      "name": "Object_0",
      "primitives": [
        {
          "attributes": {
            "NORMAL": 1,
            "POSITION": 0,
            "TEXCOORD_0": 2
          },
          "indices": 3,
          "material": 0,
          "mode": 4
        }
      ]
    }
  ],
  "nodes": [
    {
      "children": [
        1
      ],
      "matrix": [
        1.0,
        0.0,
        0.0,
        0.0,
        0.0,
        2.220446049250313e-16,
        -1.0,
        0.0,
        0.0,
        1.0,
        2.220446049250313e-16,
        0.0,
        0.0,
        0.0,
        0.0,
        1.0
      ],
      "name": "Sketchfab_model"
    },
    {
      "children": [
        2
      ],
      "name": "MIL15307-0_SFM_Web-Resolution-Model_Coordinate-Unregistered.obj.cleaner.materialmerger.gles"
    },
    {
      "mesh": 0,
      "name": "Object_2"
    }
  ],
  "samplers": [
    {
      "magFilter": 9729,
      "minFilter": 9987,
      "wrapS": 10497,
      "wrapT": 10497
    }
  ],
  "scene": 0,
  "scenes": [
    {
      "name": "Sketchfab_Scene",
      "nodes": [
        0
      ]
    }
  ],
  "textures": [
    {
      "sampler": 0,
      "source": 0
    }
  ]
}
